<svg width="257" height="92" viewBox="0 0 257 92" fill="none" xmlns="http://www.w3.org/2000/svg">
<path fill-rule="evenodd" clip-rule="evenodd" d="M92 92H0V0H92V92ZM43.5642 48.067V74.883L40.1952 73.075V58.916L33.5151 67.9L26.2281 51.773L26.2852 65.611L23.4662 64.098V39.491L34.6202 61.008L43.5642 48.067ZM65.123 48.2703C66.4481 47.2713 67.3761 46.1343 67.9731 45.2303C69.2651 43.2833 69.9611 41.0143 69.9611 38.7613C69.9611 36.4753 69.2651 34.7683 67.9731 33.8653C66.9791 33.1403 65.0901 32.5783 61.8431 33.8903L54.5531 36.8353V61.4203L58.3971 59.8683V51.5513L61.2131 50.4133L67.4091 56.2263L71.7501 54.4733L65.123 48.2703ZM33.9113 26.0962L37.9463 27.6642L59.0002 19.1642L54.9652 17.5962L33.9113 26.0962Z" fill="white"/>
<path fill-rule="evenodd" clip-rule="evenodd" d="M0 11.2577V1.91373L3.446 0.521731C5.036 -0.121269 6.229 -0.172269 6.991 0.381731C7.919 1.00073 8.085 2.32573 8.085 3.31973C8.085 4.28073 7.919 5.73873 6.991 7.10773C6.229 8.27673 5.036 9.22273 3.446 9.86573L0 11.2577Z" transform="translate(58.3971 36.8476)" fill="white"/>
<path d="M13.968 14V0.0319996L7.686 9.392L1.404 0.0319996V14H3.492V6.908L7.686 13.136L11.862 6.908V14H13.968ZM25.9187 14H28.2047L22.4087 0.0319996L16.5947 14H18.8987L20.0327 11.138H24.7847L25.9187 14ZM20.7887 9.266L22.4087 5.198L24.0287 9.266H20.7887ZM36.4253 9.176C37.1453 8.924 37.6493 8.51 37.9733 8.15C38.6753 7.376 39.0533 6.296 39.0533 5.072C39.0533 3.83 38.6753 2.75 37.9733 1.976C37.4333 1.364 36.4073 0.644 34.6433 0.644H32.4473H30.6833V14H32.7713V9.482H34.3013L37.6673 14H40.0253L36.4253 9.176ZM32.7713 7.61V2.534H34.6433C35.5073 2.534 36.1553 2.768 36.5693 3.236C37.0733 3.776 37.1633 4.532 37.1633 5.072C37.1633 5.594 37.0733 6.35 36.5693 6.89C36.1553 7.358 35.5073 7.61 34.6433 7.61H32.7713ZM51.1338 10.058C50.9898 10.238 50.8458 10.4 50.6838 10.562C49.8198 11.426 48.6678 11.912 47.4438 11.912C46.2198 11.912 45.0678 11.426 44.2038 10.562C43.3398 9.698 42.8538 8.546 42.8538 7.322C42.8538 6.098 43.3398 4.946 44.2038 4.082C45.0678 3.2 46.2198 2.732 47.4438 2.732C48.5238 2.732 49.5318 3.092 50.3418 3.758V1.292C50.2518 1.256 50.1438 1.202 50.0538 1.166C49.2258 0.806 48.3438 0.644 47.4438 0.644C46.5438 0.644 45.6618 0.806 44.8518 1.166C44.0418 1.49 43.3398 1.976 42.7278 2.588C42.1158 3.2 41.6298 3.92 41.2878 4.712C40.9458 5.54 40.7658 6.422 40.7658 7.322C40.7658 8.222 40.9458 9.104 41.2878 9.914C41.6298 10.724 42.1158 11.426 42.7278 12.038C43.3398 12.65 44.0418 13.136 44.8518 13.478C45.6618 13.82 46.5438 14 47.4438 14C48.3438 14 49.2258 13.82 50.0538 13.478C50.4318 13.316 50.7918 13.118 51.1338 12.902V10.058Z" transform="translate(109.333 10.6641)" fill="white"/>
<path d="M7.146 9.176C7.866 8.924 8.37 8.51 8.694 8.15C9.396 7.376 9.774 6.296 9.774 5.072C9.774 3.83 9.396 2.75 8.694 1.976C8.154 1.364 7.128 0.644 5.364 0.644H3.168H1.404V14H3.492V9.482H5.022L8.388 14H10.746L7.146 9.176ZM3.492 7.61V2.534H5.364C6.228 2.534 6.876 2.768 7.29 3.236C7.794 3.776 7.884 4.532 7.884 5.072C7.884 5.594 7.794 6.35 7.29 6.89C6.876 7.358 6.228 7.61 5.364 7.61H3.492ZM14.4653 2.516H20.3873V0.644H14.4473H12.3773V14H14.4473H20.3873V12.11H14.4653V7.97H19.3433V6.08H14.4653V2.516ZM24.3838 14V0.644H22.2958V14H24.3838ZM34.8154 2.642C34.2394 1.994 33.5194 1.49 32.6734 1.166C31.8094 0.806 30.8374 0.644 29.7574 0.644H28.6774H26.5894V14H27.2914H29.7574C30.8374 14 31.8094 13.82 32.6734 13.478C33.5194 13.154 34.2394 12.65 34.8154 12.002C35.8774 10.832 36.4354 9.212 36.4354 7.322C36.4354 5.432 35.8774 3.812 34.8154 2.642ZM33.2674 10.598C32.4754 11.462 31.3054 11.912 29.7574 11.912H28.6774V2.732H29.7574C31.3054 2.732 32.4754 3.164 33.2674 4.046C33.9694 4.82 34.3474 5.954 34.3474 7.322C34.3474 8.672 33.9694 9.824 33.2674 10.598ZM40.2659 14V0.644H38.1779V14H40.2659ZM50.4094 8.276C50.1934 7.79 49.8874 7.358 49.4914 6.962C49.2934 6.782 49.0954 6.62 48.8794 6.476C49.6894 5.63 49.9234 4.748 49.9234 4.028C49.9234 3.506 49.8334 3.038 49.6534 2.624C49.4554 2.174 49.1494 1.778 48.7354 1.472C47.9794 0.914 46.8994 0.644 45.4234 0.644H44.5594H42.4714V14H44.2354H45.4234C46.9354 14 48.1774 13.694 49.0954 13.118C49.6174 12.776 50.0314 12.344 50.3194 11.84C50.6074 11.3 50.7514 10.706 50.7514 10.04C50.7514 9.41 50.6434 8.816 50.4094 8.276ZM45.4234 2.516C46.1254 2.516 47.0974 2.606 47.6014 2.984C47.7994 3.128 48.0334 3.38 48.0334 4.028C48.0334 4.46 47.8534 4.838 47.4754 5.198C47.1154 5.558 46.5934 5.864 45.9274 6.134C45.4594 6.332 44.9734 6.476 44.5594 6.566V2.516H45.4234ZM48.0694 11.534C47.4754 11.912 46.5574 12.11 45.4234 12.11H44.5594V8.51C45.1174 8.384 45.8554 8.204 46.5934 7.898C46.7914 7.826 46.9714 7.736 47.1514 7.664C47.5654 7.844 47.9074 8.06 48.1774 8.33C48.6454 8.78 48.8794 9.338 48.8794 10.04C48.8794 10.706 48.6274 11.174 48.0694 11.534ZM58.7415 14C59.6415 14 60.5235 13.82 61.3515 13.478C62.1435 13.136 62.8455 12.65 63.4755 12.038C64.0875 11.426 64.5555 10.724 64.8975 9.914C65.2395 9.104 65.4195 8.222 65.4195 7.322C65.4195 6.422 65.2395 5.54 64.8975 4.712C64.5555 3.92 64.0875 3.218 63.4755 2.588C62.8455 1.976 62.1435 1.508 61.3515 1.166C60.5235 0.824 59.6415 0.644 58.7415 0.644C57.8415 0.644 56.9595 0.824 56.1495 1.166C55.3395 1.508 54.6375 1.976 54.0255 2.588C53.4135 3.218 52.9275 3.92 52.5855 4.712C52.2435 5.54 52.0635 6.422 52.0635 7.322C52.0635 8.222 52.2435 9.104 52.5855 9.914C52.9275 10.724 53.4135 11.426 54.0255 12.038C54.6375 12.65 55.3395 13.136 56.1495 13.478C56.9595 13.82 57.8415 14 58.7415 14ZM58.7415 2.732C59.9655 2.732 61.1175 3.218 61.9815 4.082C62.8455 4.946 63.3315 6.098 63.3315 7.322C63.3315 8.546 62.8455 9.698 61.9815 10.562C61.1175 11.426 59.9655 11.912 58.7415 11.912C57.5175 11.912 56.3655 11.426 55.5015 10.562C54.6375 9.698 54.1515 8.546 54.1515 7.322C54.1515 6.098 54.6375 4.946 55.5015 4.082C56.3655 3.218 57.5175 2.732 58.7415 2.732ZM76.3388 0.644H74.1068L70.6148 5.396L67.1228 0.644H64.8728L69.5708 7.016V14H71.6588V7.016L76.3388 0.644ZM90.2074 14V0.0319996L83.9254 9.392L77.6434 0.0319996V14H79.7314V6.908L83.9254 13.136L88.1014 6.908V14H90.2074Z" transform="translate(109.333 30.6621)" fill="white"/>
<path d="M7.67822 13.377H2.58984L1.56885 16H0.0830078L4.35791 4.66943H6.04297L10.21 16H8.62451L7.67822 13.377ZM7.24658 12.1484L5.16309 6.4707L3.02979 12.1484H7.24658ZM11.5879 8.16406H12.8911V9.48389C13.0959 9.00244 13.3338 8.65658 13.605 8.44629C14.02 8.13086 14.5125 7.97314 15.0825 7.97314C15.1489 7.97314 15.2513 7.97591 15.3896 7.98145V9.28467C15.2402 9.2736 15.1157 9.26807 15.0161 9.26807C14.3078 9.26807 13.7489 9.56689 13.3394 10.1646C13.1401 10.4634 13.0129 10.7733 12.9575 11.0942C12.9132 11.3543 12.8911 11.6615 12.8911 12.0156V16H11.5879V8.16406ZM22.0039 14.1406L22.8008 15.0288C22.4134 15.3885 22.0454 15.6486 21.6968 15.8091C21.1489 16.0581 20.5596 16.1826 19.9287 16.1826C18.7998 16.1826 17.8673 15.7897 17.1313 15.0039C16.4285 14.2624 16.0771 13.2939 16.0771 12.0986C16.0771 11.4235 16.2017 10.7982 16.4507 10.2227C16.7052 9.64714 17.0594 9.17676 17.5132 8.81152C18.2049 8.2526 19.0295 7.97314 19.9868 7.97314C21.088 7.97314 22.0426 8.36605 22.8506 9.15186L22.0039 9.98193C21.4173 9.43408 20.7532 9.16016 20.0117 9.16016C19.1927 9.16016 18.5342 9.46452 18.0361 10.0732C17.6156 10.5879 17.4053 11.2464 17.4053 12.0488C17.4053 13.0339 17.6958 13.7948 18.2768 14.3315C18.7583 14.7743 19.3338 14.9956 20.0034 14.9956C20.7449 14.9956 21.4118 14.7106 22.0039 14.1406ZM25.5972 4.66943V9.25146C26.2723 8.40479 27.0526 7.98145 27.938 7.98145C28.2811 7.98145 28.6186 8.04785 28.9507 8.18066C29.2882 8.30794 29.5649 8.47673 29.7807 8.68701C30.1847 9.09652 30.3867 9.77995 30.3867 10.7373V16H29.0835V10.7954C29.0835 10.2752 28.959 9.86572 28.7099 9.56689C28.4665 9.27913 28.1068 9.13525 27.6308 9.13525C27.0221 9.13525 26.5158 9.36768 26.1118 9.83252C25.896 10.076 25.7549 10.3223 25.6885 10.5713C25.6276 10.7926 25.5972 11.0721 25.5972 11.4097V16H24.2939V4.66943H25.5972ZM34.2217 8.16406V16H32.9267V8.16406H34.2217ZM33.5991 5.12598C33.8371 5.12598 34.0363 5.21729 34.1968 5.3999C34.3406 5.56038 34.4126 5.74577 34.4126 5.95605C34.4126 6.20508 34.3185 6.41536 34.1304 6.58691C33.9809 6.71973 33.7983 6.78613 33.5825 6.78613C33.3279 6.78613 33.1232 6.69759 32.9682 6.52051C32.8244 6.36003 32.7524 6.16911 32.7524 5.94775C32.7524 5.70426 32.8465 5.49674 33.0347 5.3252C33.1785 5.19238 33.3667 5.12598 33.5991 5.12598ZM38.206 9.30127V14.3979C38.206 14.5806 38.242 14.7023 38.3139 14.7632C38.3859 14.8351 38.5436 14.8711 38.7871 14.8711H39.3848V16H38.1894C37.7301 15.9945 37.4036 15.8976 37.2099 15.7095C37.0107 15.5269 36.9084 15.2142 36.9028 14.7715V9.30127H35.8154V8.15576H36.9028V5.69873H38.206V8.15576H39.3848V9.30127H38.206ZM48.3524 12.4971H41.8197C41.8861 13.0781 42.0577 13.5596 42.3343 13.9414C42.8601 14.6497 43.5629 15.0039 44.4427 15.0039C45.0183 15.0039 45.5661 14.8158 46.0863 14.4395C46.3796 14.2292 46.6148 13.9663 46.7919 13.6509L47.9291 14.0742C47.6856 14.5723 47.3508 14.9873 46.9247 15.3193C46.1831 15.9004 45.3558 16.1909 44.4427 16.1909C43.1755 16.1909 42.1545 15.7344 41.3798 14.8213C40.76 14.0964 40.4501 13.1916 40.4501 12.1069C40.4501 10.8895 40.8236 9.89616 41.5707 9.12695C42.3122 8.36328 43.2557 7.98145 44.4012 7.98145C45.7404 7.98145 46.7919 8.48503 47.5555 9.49219C48.1034 10.2171 48.3773 11.0444 48.3773 11.9741C48.3773 12.0903 48.369 12.2646 48.3524 12.4971ZM46.9994 11.5508C46.9496 11.0029 46.7974 10.5547 46.5428 10.2061C46.3049 9.87402 45.995 9.61393 45.6132 9.42578C45.2313 9.2321 44.8246 9.13525 44.3929 9.13525C43.9613 9.13525 43.5601 9.2321 43.1893 9.42578C42.8186 9.61947 42.5197 9.88786 42.2928 10.231C42.0826 10.5519 41.9331 10.9919 41.8446 11.5508H46.9994ZM55.5575 14.1406L56.3544 15.0288C55.967 15.3885 55.599 15.6486 55.2504 15.8091C54.7025 16.0581 54.1132 16.1826 53.4823 16.1826C52.3534 16.1826 51.4209 15.7897 50.6849 15.0039C49.9821 14.2624 49.6307 13.2939 49.6307 12.0986C49.6307 11.4235 49.7552 10.7982 50.0043 10.2227C50.2588 9.64714 50.613 9.17676 51.0668 8.81152C51.7585 8.2526 52.583 7.97314 53.5404 7.97314C54.6416 7.97314 55.5962 8.36605 56.4042 9.15186L55.5575 9.98193C54.9709 9.43408 54.3068 9.16016 53.5653 9.16016C52.7463 9.16016 52.0878 9.46452 51.5897 10.0732C51.1691 10.5879 50.9589 11.2464 50.9589 12.0488C50.9589 13.0339 51.2494 13.7948 51.8304 14.3315C52.3119 14.7743 52.8874 14.9956 53.557 14.9956C54.2985 14.9956 54.9654 14.7106 55.5575 14.1406ZM59.409 9.30127V14.3979C59.409 14.5806 59.445 14.7023 59.517 14.7632C59.5889 14.8351 59.7466 14.8711 59.9901 14.8711H60.5878V16H59.3924C58.9331 15.9945 58.6066 15.8976 58.413 15.7095C58.2137 15.5269 58.1114 15.2142 58.1058 14.7715V9.30127H57.0184V8.15576H58.1058V5.69873H59.409V8.15576H60.5878V9.30127H59.409ZM69.5418 12.4971H63.0091C63.0755 13.0781 63.2471 13.5596 63.5238 13.9414C64.0495 14.6497 64.7523 15.0039 65.6322 15.0039C66.2077 15.0039 66.7555 14.8158 67.2757 14.4395C67.569 14.2292 67.8042 13.9663 67.9813 13.6509L69.1185 14.0742C68.875 14.5723 68.5402 14.9873 68.1141 15.3193C67.3725 15.9004 66.5452 16.1909 65.6322 16.1909C64.3649 16.1909 63.3439 15.7344 62.5692 14.8213C61.9494 14.0964 61.6395 13.1916 61.6395 12.1069C61.6395 10.8895 62.013 9.89616 62.7601 9.12695C63.5016 8.36328 64.4451 7.98145 65.5906 7.98145C66.9298 7.98145 67.9813 8.48503 68.7449 9.49219C69.2928 10.2171 69.5667 11.0444 69.5667 11.9741C69.5667 12.0903 69.5584 12.2646 69.5418 12.4971ZM68.1888 11.5508C68.139 11.0029 67.9868 10.5547 67.7323 10.2061C67.4943 9.87402 67.1844 9.61393 66.8026 9.42578C66.4207 9.2321 66.014 9.13525 65.5823 9.13525C65.1507 9.13525 64.7495 9.2321 64.3787 9.42578C64.008 9.61947 63.7091 9.88786 63.4823 10.231C63.272 10.5519 63.1225 10.9919 63.034 11.5508H68.1888ZM82.408 9.35107V4.66943H83.7113V16H82.408V14.6553C82.0815 15.1035 81.755 15.4355 81.4285 15.6514C80.8862 16.0055 80.2803 16.1826 79.6107 16.1826C78.5039 16.1826 77.5991 15.7869 76.8963 14.9956C76.2433 14.2596 75.9168 13.3022 75.9168 12.1235C75.9168 11.5037 76.0192 10.9227 76.224 10.3804C76.4287 9.83252 76.7192 9.37598 77.0955 9.01074C77.7928 8.31901 78.6284 7.97314 79.6024 7.97314C80.1502 7.97314 80.6759 8.09212 81.1795 8.33008C81.6056 8.52376 82.0151 8.8641 82.408 9.35107ZM79.8099 9.12695C78.9743 9.12695 78.3158 9.48389 77.8343 10.1978C77.4691 10.7456 77.2865 11.3931 77.2865 12.1401C77.2865 13.0477 77.5465 13.7754 78.0667 14.3232C78.526 14.8102 79.1043 15.0537 79.8016 15.0537C80.5708 15.0537 81.2044 14.766 81.7025 14.1904C82.1784 13.6481 82.4163 12.9176 82.4163 11.999C82.4163 11.1523 82.1701 10.4578 81.6776 9.91553C81.2017 9.38981 80.5791 9.12695 79.8099 9.12695ZM88.1107 4.86035L86.5584 8.32178L85.6204 7.98975L86.9901 4.44531L88.1107 4.86035ZM91.3729 8.16406V16H90.078V8.16406H91.3729ZM90.7503 5.12598C90.9883 5.12598 91.1875 5.21729 91.348 5.3999C91.4919 5.56038 91.5638 5.74577 91.5638 5.95605C91.5638 6.20508 91.4697 6.41536 91.2816 6.58691C91.1322 6.71973 90.9495 6.78613 90.7337 6.78613C90.4792 6.78613 90.2744 6.69759 90.1195 6.52051C89.9756 6.36003 89.9036 6.16911 89.9036 5.94775C89.9036 5.70426 89.9977 5.49674 90.1859 5.3252C90.3297 5.19238 90.5179 5.12598 90.7503 5.12598ZM93.9793 8.16406H95.2742V9.26807C95.5675 8.87516 95.8581 8.58464 96.1458 8.39648C96.5775 8.11979 97.0617 7.98145 97.5985 7.98145C98.3345 7.98145 98.9377 8.20003 99.408 8.63721C99.7124 8.91943 99.9061 9.25423 99.9891 9.6416C100.05 9.9349 100.08 10.2946 100.08 10.7207V16H98.7772V11.0029C98.7772 10.361 98.6831 9.91276 98.4949 9.6582C98.2404 9.30957 97.8337 9.13525 97.2747 9.13525C96.6881 9.13525 96.1901 9.35661 95.7806 9.79932C95.443 10.1646 95.2742 10.6377 95.2742 11.2188V16H93.9793V8.16406ZM104.007 9.30127V14.3979C104.007 14.5806 104.043 14.7023 104.115 14.7632C104.187 14.8351 104.344 14.8711 104.588 14.8711H105.185V16H103.99C103.531 15.9945 103.204 15.8976 103.011 15.7095C102.811 15.5269 102.709 15.2142 102.703 14.7715V9.30127H101.616V8.15576H102.703V5.69873H104.007V8.15576H105.185V9.30127H104.007ZM114.139 12.4971H107.607C107.673 13.0781 107.845 13.5596 108.121 13.9414C108.647 14.6497 109.35 15.0039 110.23 15.0039C110.805 15.0039 111.353 14.8158 111.873 14.4395C112.167 14.2292 112.402 13.9663 112.579 13.6509L113.716 14.0742C113.473 14.5723 113.138 14.9873 112.712 15.3193C111.97 15.9004 111.143 16.1909 110.23 16.1909C108.963 16.1909 107.942 15.7344 107.167 14.8213C106.547 14.0964 106.237 13.1916 106.237 12.1069C106.237 10.8895 106.611 9.89616 107.358 9.12695C108.099 8.36328 109.043 7.98145 110.188 7.98145C111.527 7.98145 112.579 8.48503 113.343 9.49219C113.89 10.2171 114.164 11.0444 114.164 11.9741C114.164 12.0903 114.156 12.2646 114.139 12.4971ZM112.786 11.5508C112.737 11.0029 112.584 10.5547 112.33 10.2061C112.092 9.87402 111.782 9.61393 111.4 9.42578C111.018 9.2321 110.612 9.13525 110.18 9.13525C109.748 9.13525 109.347 9.2321 108.976 9.42578C108.606 9.61947 108.307 9.88786 108.08 10.231C107.87 10.5519 107.72 10.9919 107.632 11.5508H112.786ZM110.886 4.78564H112.413L110.412 7.02686H109.483L110.886 4.78564ZM116.049 8.16406H117.352V9.48389C117.557 9.00244 117.795 8.65658 118.066 8.44629C118.481 8.13086 118.973 7.97314 119.543 7.97314C119.61 7.97314 119.712 7.97591 119.85 7.98145V9.28467C119.701 9.2736 119.576 9.26807 119.477 9.26807C118.769 9.26807 118.21 9.56689 117.8 10.1646C117.601 10.4634 117.474 10.7733 117.418 11.0942C117.374 11.3543 117.352 11.6615 117.352 12.0156V16H116.049V8.16406ZM122.605 8.16406V16H121.31V8.16406H122.605ZM121.982 5.12598C122.22 5.12598 122.419 5.21729 122.58 5.3999C122.724 5.56038 122.796 5.74577 122.796 5.95605C122.796 6.20508 122.702 6.41536 122.513 6.58691C122.364 6.71973 122.181 6.78613 121.966 6.78613C121.711 6.78613 121.506 6.69759 121.351 6.52051C121.207 6.36003 121.136 6.16911 121.136 5.94775C121.136 5.70426 121.23 5.49674 121.418 5.3252C121.562 5.19238 121.75 5.12598 121.982 5.12598ZM132.483 12.4971H125.95C126.016 13.0781 126.188 13.5596 126.465 13.9414C126.99 14.6497 127.693 15.0039 128.573 15.0039C129.149 15.0039 129.696 14.8158 130.217 14.4395C130.51 14.2292 130.745 13.9663 130.922 13.6509L132.059 14.0742C131.816 14.5723 131.481 14.9873 131.055 15.3193C130.313 15.9004 129.486 16.1909 128.573 16.1909C127.306 16.1909 126.285 15.7344 125.51 14.8213C124.89 14.0964 124.58 13.1916 124.58 12.1069C124.58 10.8895 124.954 9.89616 125.701 9.12695C126.442 8.36328 127.386 7.98145 128.532 7.98145C129.871 7.98145 130.922 8.48503 131.686 9.49219C132.234 10.2171 132.508 11.0444 132.508 11.9741C132.508 12.0903 132.499 12.2646 132.483 12.4971ZM131.13 11.5508C131.08 11.0029 130.928 10.5547 130.673 10.2061C130.435 9.87402 130.125 9.61393 129.743 9.42578C129.362 9.2321 128.955 9.13525 128.523 9.13525C128.092 9.13525 127.69 9.2321 127.32 9.42578C126.949 9.61947 126.65 9.88786 126.423 10.231C126.213 10.5519 126.063 10.9919 125.975 11.5508H131.13ZM138.966 8.16406H140.269V13.186C140.269 13.9165 140.153 14.4699 139.92 14.8462C139.66 15.2668 139.281 15.5988 138.783 15.8423C138.307 16.0692 137.79 16.1826 137.231 16.1826C136.301 16.1826 135.546 15.9059 134.965 15.3525C134.439 14.849 134.176 14.1268 134.176 13.186V8.16406H135.471V13.1362C135.471 13.6951 135.631 14.1489 135.952 14.4976C136.279 14.8517 136.705 15.0288 137.231 15.0288C137.812 15.0288 138.271 14.8296 138.609 14.4312C138.847 14.16 138.966 13.745 138.966 13.186V8.16406ZM142.643 8.16406H143.946V9.48389C144.151 9.00244 144.389 8.65658 144.66 8.44629C145.075 8.13086 145.567 7.97314 146.137 7.97314C146.204 7.97314 146.306 7.97591 146.445 7.98145V9.28467C146.295 9.2736 146.171 9.26807 146.071 9.26807C145.363 9.26807 144.804 9.56689 144.394 10.1646C144.195 10.4634 144.068 10.7733 144.012 11.0942C143.968 11.3543 143.946 11.6615 143.946 12.0156V16H142.643V8.16406Z" transform="translate(109.333 56.2608)" fill="white"/>
</svg>
